<?xml version="1.0" encoding="UTF-8"?>
<svg width="673px" height="739px" viewBox="0 0 673 739" version="1.1" xmlns="http://www.w3.org/2000/svg" xmlns:xlink="http://www.w3.org/1999/xlink">
    <title>ufo</title>
    <g id="Page-1" stroke="none" stroke-width="1" fill="none" fill-rule="evenodd">
        <g id="Artboard" transform="translate(-46, -5)" fill-rule="nonzero">
            <g id="ufo" transform="translate(46, 4.9992)">
                <path d="M466.99998,149.804834 C420.37986,142.364834 367.28998,138.394834 311.99998,138.394834 C261.39988,138.394834 212.64988,141.714834 169.01998,147.974834 C169.03024,147.304784 169.03998,146.634834 169.06979,145.964834 C171.475395,65.0817703 237.996298,0.903389519 318.913617,1.39773159 C399.830937,1.89207367 465.562743,66.878416 466.97994,147.784834 C466.99022,148.464834 466.99998,149.134834 466.99998,149.804834 Z" id="Path" fill="#6C63FF"></path>
                <g id="Group" opacity="0.1" transform="translate(168.5693, -0)" fill="#FFFFFF">
                    <path d="M168.98095,1.34215434 C127.13274,-4.31036849 84.850916,8.05391181 52.6414548,35.3627806 C20.4319936,62.6716494 1.31835483,102.361659 0.0498,144.570834 C0.01953,145.240834 0.0098,145.910834 0,146.580834 C12.96191,144.721024 26.38476,143.127334 40.165,141.796524 C43.6426273,70.0519712 97.8040157,10.9971438 168.98095,1.34215434 Z" id="Path"></path>
                </g>
                <path d="M532.18016,161.624834 C510.719931,155.807213 488.952968,151.186755 466.97996,147.784834 C430.965662,142.204002 394.658224,138.71482 358.24022,137.334834 C343.06981,136.714834 327.6201,136.394834 311.99998,136.394834 C299.6201,136.394834 287.33983,136.594834 275.22998,136.994834 C239.706035,138.044386 204.266238,141.038871 169.06983,145.964834 C143.015676,149.552441 117.214264,154.782863 91.81983,161.624834 C32.60983,177.994834 0,199.934834 0,223.394834 C0,246.854834 32.60987,268.794834 91.81983,285.164834 C133.45996,296.684834 184.79983,304.534834 240.74024,308.134834 C263.83008,309.634834 287.70024,310.394834 312,310.394834 C336.37988,310.394834 360.33008,309.624834 383.49024,308.124834 C434.3999,304.834834 481.5,298.024834 520.91992,288.124834 C521.12992,288.064834 521.33008,288.014834 521.54004,287.964834 C524.2002,287.304834 526.81983,286.614834 529.41016,285.924834 C530.33985,285.664834 531.25977,285.414834 532.18016,285.164834 C532.231858,285.143639 532.285277,285.126911 532.33983,285.114834 C533.2202,284.874834 534.08983,284.624834 534.95994,284.384834 C536.70018,283.884834 538.41994,283.394834 540.10985,282.884834 C540.18992,282.864834 540.25975,282.844834 540.33006,282.824834 C541.79979,282.384834 543.24022,281.944834 544.6699,281.504834 C545.83983,281.134834 546.99998,280.774834 548.1499,280.404834 C548.99024,280.134834 549.82032,279.864834 550.64014,279.594834 C551.24024,279.394834 551.83008,279.204834 552.41014,279.004834 C553.20014,278.744834 553.99022,278.474834 554.77,278.204834 C555.10008,278.094834 555.43016,277.984834 555.75,277.864834 C556.5,277.614834 557.23,277.354834 557.96,277.094834 C558.75,276.814834 559.54008,276.524834 560.31987,276.244834 C560.97026,276.014834 561.62016,275.774834 562.25981,275.534834 C562.79981,275.324834 563.33012,275.124834 563.87016,274.924834 C565.33989,274.374834 566.78032,273.804774 568.20024,273.244834 C568.91024,272.954834 569.62016,272.674834 570.31987,272.384834 C571.00981,272.104834 571.71,271.814834 572.39018,271.524834 C573.509807,271.054794 574.60974,270.584794 575.68998,270.114834 C576.20998,269.874834 576.74028,269.644834 577.25004,269.424894 C577.64018,269.244894 578.02004,269.074894 578.4102,268.894894 C578.68998,268.774894 578.97026,268.644894 579.24028,268.514894 C580.25004,268.054894 581.25004,267.584894 582.23002,267.114894 C585.99028,265.314894 589.50021,263.474894 592.75981,261.594894 C613.21,249.884894 624.00004,236.894894 624.00004,223.394894 C624.00004,199.934834 591.39012,177.994834 532.18016,161.624834 Z M531.64016,283.244834 C489.95022,294.774834 438.47024,302.624834 382.3799,306.194834 C359.56985,307.644834 335.99026,308.394834 312.00002,308.394834 C288.08987,308.394834 264.58987,307.654834 241.85012,306.204834 C185.66994,302.644834 134.10989,294.794834 92.35989,283.244834 C34.08989,267.124834 2.00002,245.874834 2.00002,223.394834 C2.00002,221.408509 2.25190572,219.430194 2.74026,217.504834 C7.83987,197.224834 39.20998,178.244834 92.35989,163.544834 C117.562376,156.756169 143.166087,151.555947 169.02004,147.974834 C204.428266,143.020994 240.081943,140.016465 275.81985,138.974834 C287.740257,138.584834 299.800313,138.391501 312.00002,138.394792 C327.41018,138.394792 342.64992,138.704834 357.6299,139.304834 C394.259942,140.672487 430.778834,144.178457 467.00002,149.804834 C488.783192,153.191592 510.362739,157.778574 531.64012,163.544834 C584.78026,178.244834 616.14012,197.214834 621.24998,217.484834 C621.746293,219.41569 621.99998,221.401212 621.99998,223.394834 C621.99998,245.874834 589.91014,267.124834 531.64012,283.244834 L531.64016,283.244834 Z" id="Shape" fill="#3F3D56"></path>
                <path d="M623.43016,224.304834 C623.43016,237.664884 612.4199,250.304834 592.75975,261.594834 C589.49022,263.474834 585.9702,265.314834 582.22996,267.114834 C581.24996,267.584834 580.24996,268.054834 579.24022,268.514834 C578.97022,268.644834 578.68992,268.774834 578.41014,268.894834 C578.02,269.074834 577.64014,269.244834 577.24998,269.424834 C576.74022,269.644834 576.20998,269.874834 575.68992,270.114774 C574.609853,270.584774 573.50992,271.054774 572.39012,271.524774 C571.70994,271.814774 571.00975,272.104774 570.31981,272.384774 C569.6201,272.674774 568.91014,272.954774 568.20018,273.244774 C566.78026,273.804774 565.33983,274.374774 563.8701,274.924774 C563.3301,275.124774 562.79979,275.324774 562.25975,275.534774 C561.6201,275.774774 560.9702,276.014774 560.31981,276.244774 C559.54002,276.524774 558.74998,276.814774 557.95994,277.094774 C557.22994,277.354774 556.49994,277.614774 555.74994,277.864774 C555.43012,277.984834 555.10004,278.094774 554.76994,278.204774 C553.99016,278.474774 553.20012,278.744774 552.41008,279.004774 C551.83,279.204774 551.24016,279.394774 550.64008,279.594774 C549.819773,279.864734 548.989693,280.134734 548.14984,280.404774 C546.99994,280.774774 545.83984,281.134774 544.66984,281.504774 C543.24016,281.944774 541.79973,282.384774 540.33,282.824774 C540.25969,282.844774 540.18986,282.864774 540.10979,282.884774 C538.41984,283.394774 536.70012,283.884774 534.95988,284.384774 C534.08977,284.624774 533.22014,284.874774 532.33977,285.114774 C532.285217,285.126851 532.231798,285.143579 532.1801,285.164774 C531.25969,285.414774 530.33977,285.664774 529.4101,285.924774 C526.83002,286.604774 524.2001,287.294774 521.53998,287.964774 C521.32998,288.014774 521.12982,288.064774 520.91986,288.124774 C482.56977,297.704774 435.51996,304.684774 383.45014,308.054774 C360.64008,309.524774 336.85981,310.304774 312.43014,310.304774 C287.78024,310.304774 263.79977,309.514774 240.81002,308.014774 C103.56979,299.064774 1.43014,264.984774 1.43014,224.304774 C1.44094551,221.829513 1.81824802,219.369497 2.54977,217.004774 C2.60983,217.174774 2.66988,217.334774 2.7402,217.504774 C17.00973,254.984774 118.2802,285.274774 249.68014,292.664774 C269.81002,293.804724 290.66014,294.394774 311.99996,294.394774 C333.43014,294.394774 354.35983,293.794774 374.56979,292.654774 C505.85979,285.234774 607.03024,254.934774 621.24996,217.484774 C621.4902,216.884734 621.70016,216.284734 621.87984,215.684774 C622.893726,218.446173 623.418356,221.363211 623.43016,224.304834 L623.43016,224.304834 Z" id="Path" fill="#3F3D56"></path>
                <path d="M91.66929,213.540834 C75.02659,213.540834 57.33861,209.960264 57.33861,203.324034 C57.33861,196.687804 75.02661,193.107234 91.66929,193.107234 C108.31197,193.107234 125.99998,196.687804 125.99998,203.324034 C125.99998,209.960264 108.31199,213.540834 91.66929,213.540834 Z M91.66929,195.107224 C72.61629,195.107224 59.33861,199.437804 59.33861,203.324034 C59.33861,207.210264 72.61631,211.540834 91.66929,211.540834 C110.72227,211.540834 123.99998,207.210264 123.99998,203.324034 C123.99998,199.437804 110.72227,195.107224 91.66929,195.107224 L91.66929,195.107224 Z" id="Shape" fill="#3F3D56"></path>
                <path d="M162.66917,260.540834 C146.02659,260.540834 128.33861,256.960264 128.33861,250.324034 C128.33861,243.687804 146.02661,240.107234 162.66917,240.107234 C179.31199,240.107234 196.99998,243.687804 196.99998,250.324034 C196.99998,256.960264 179.31199,260.540834 162.66917,260.540834 Z M162.66917,242.107224 C143.61631,242.107224 130.33861,246.437804 130.33861,250.324034 C130.33861,254.210264 143.61631,258.540834 162.66917,258.540834 C181.72203,258.540834 194.99998,254.210264 194.99998,250.324034 C194.99998,246.437804 181.72215,242.107224 162.66917,242.107224 L162.66917,242.107224 Z" id="Shape" fill="#3F3D56"></path>
                <path d="M531.66917,213.540834 C515.02659,213.540834 497.33861,209.960264 497.33861,203.324034 C497.33861,196.687804 515.02661,193.107234 531.66917,193.107234 C548.31199,193.107234 565.99998,196.687804 565.99998,203.324034 C565.99998,209.960264 548.31199,213.540834 531.66917,213.540834 Z M531.66917,195.107224 C512.61617,195.107224 499.33861,199.437804 499.33861,203.324034 C499.33861,207.210264 512.61619,211.540834 531.66917,211.540834 C550.72215,211.540834 563.99998,207.210264 563.99998,203.324034 C563.99998,199.437804 550.72215,195.107224 531.66917,195.107224 L531.66917,195.107224 Z" id="Shape" fill="#3F3D56"></path>
                <path d="M460.66917,260.540834 C444.02659,260.540834 426.33861,256.960264 426.33861,250.324034 C426.33861,243.687804 444.02661,240.107234 460.66917,240.107234 C477.31199,240.107234 494.99998,243.687804 494.99998,250.324034 C494.99998,256.960264 477.31199,260.540834 460.66917,260.540834 Z M460.66917,242.107224 C441.61617,242.107224 428.33861,246.437804 428.33861,250.324034 C428.33861,254.210264 441.61619,258.540834 460.66917,258.540834 C479.72215,258.540834 492.99998,254.210264 492.99998,250.324034 C492.99998,246.437804 479.72215,242.107224 460.66917,242.107224 L460.66917,242.107224 Z" id="Shape" fill="#3F3D56"></path>
                <path d="M311.66917,282.540834 C295.02659,282.540834 277.33861,278.960264 277.33861,272.324034 C277.33861,265.687804 295.02661,262.107234 311.66917,262.107234 C328.31199,262.107234 345.99998,265.687804 345.99998,272.324034 C345.99998,278.960264 328.31199,282.540834 311.66917,282.540834 Z M311.66917,264.107224 C292.61617,264.107224 279.33861,268.437804 279.33861,272.324034 C279.33861,276.210264 292.61619,280.540834 311.66917,280.540834 C330.72215,280.540834 343.99998,276.210264 343.99998,272.324034 C343.99998,268.437804 330.72215,264.107224 311.66917,264.107224 L311.66917,264.107224 Z" id="Shape" fill="#3F3D56"></path>
                <circle id="Oval" fill="#2F2E41" cx="336.97783" cy="450.705094" r="42.01233"></circle>
                <rect id="Rectangle" fill="#2F2E41" transform="translate(313.636, 489.1333) rotate(-26.601) translate(-313.636, -489.1333)" x="302.202248" y="482.75169" width="22.86756" height="12.76328"></rect>
                <ellipse id="Oval" fill="#2F2E41" transform="translate(300.0861, 492.9463) rotate(-56.6012) translate(-300.0861, -492.9463)" cx="300.08615" cy="492.946292" rx="3.98853" ry="10.63605"></ellipse>
                <rect id="Rectangle" fill="#2F2E41" transform="translate(360.3197, 489.1334) rotate(-63.399) translate(-360.3197, -489.1334)" x="353.938011" y="477.699609" width="12.76328" height="22.86756"></rect>
                <ellipse id="Oval" fill="#2F2E41" transform="translate(373.8695, 492.9462) rotate(-33.3988) translate(-373.8695, -492.9462)" cx="373.869526" cy="492.946228" rx="10.63605" ry="3.98853"></ellipse>
                <circle id="Oval" fill="#FFFFFF" cx="334.03661" cy="440.428634" r="14.35864"></circle>
                <ellipse id="Oval" fill="#3F3D56" transform="translate(334.1352, 434.2818) rotate(-45) translate(-334.1352, -434.2818)" cx="334.135241" cy="434.281846" rx="4.76624" ry="4.8"></ellipse>
                <path d="M370.11973,405.000164 C370.7515,389.446574 357.34659,376.272564 340.17893,375.575234 C323.01127,374.877904 308.58201,386.921234 307.9502,402.474834 C307.31839,418.028434 319.25211,421.562294 336.41978,422.259684 C353.58745,422.957074 369.48787,420.553754 370.11973,405.000164 Z" id="Path" fill="#6C63FF"></path>
                <ellipse id="Oval" fill="#2F2E41" transform="translate(380.6538, 456.7656) rotate(-40.6452) translate(-380.6538, -456.7656)" cx="380.653839" cy="456.765635" rx="6.59448" ry="21.00616"></ellipse>
                <ellipse id="Oval" fill="#2F2E41" transform="translate(293.4194, 456.7656) rotate(-49.3548) translate(-293.4194, -456.7656)" cx="293.419379" cy="456.765556" rx="21.00616" ry="6.59448"></ellipse>
                <path d="M348.51656,467.261634 C349.463408,472.462867 346.014548,477.446871 340.813315,478.393719 C335.612082,479.340567 330.628078,475.891707 329.68123,470.690474 L329.67787,470.671974 C328.7361,465.469834 332.75826,463.628974 337.96041,462.687234 C343.16256,461.745494 347.57485,462.059494 348.51656,467.261634 Z" id="Path" fill="#FFFFFF"></path>
                <path d="M265.99998,495.394834 C264.895433,495.394834 264.000035,494.499381 263.99998,493.394834 L263.99998,375.394834 C263.99998,374.290265 264.895411,373.394834 265.99998,373.394834 C267.104549,373.394834 267.99998,374.290265 267.99998,375.394834 L267.99998,493.394834 C267.999925,494.499381 267.104527,495.394834 265.99998,495.394834 Z" id="Path" fill="#CCCCCC"></path>
                <path d="M235.99998,601.394834 C234.895433,601.394834 234.000035,600.499381 233.99998,599.394834 L233.99998,513.394834 C233.99998,512.290265 234.895411,511.394834 235.99998,511.394834 C237.104549,511.394834 237.99998,512.290265 237.99998,513.394834 L237.99998,599.394834 C237.999925,600.499381 237.104527,601.394834 235.99998,601.394834 L235.99998,601.394834 Z" id="Path" fill="#CCCCCC"></path>
                <path d="M312.99998,530.394834 C311.895433,530.394834 311.000035,529.499381 310.99998,528.394834 L310.99998,410.394834 C310.99998,409.290265 311.895411,408.394834 312.99998,408.394834 C314.104549,408.394834 314.99998,409.290265 314.99998,410.394834 L314.99998,528.394834 C314.999925,529.499381 314.104527,530.394834 312.99998,530.394834 Z" id="Path" fill="#CCCCCC"></path>
                <path d="M283.99998,615.394834 C282.895433,615.394834 282.000035,614.499381 281.99998,613.394834 L281.99998,565.394834 C281.99998,564.290265 282.895411,563.394834 283.99998,563.394834 C285.104549,563.394834 285.99998,564.290265 285.99998,565.394834 L285.99998,613.394834 C285.999925,614.499381 285.104527,615.394834 283.99998,615.394834 Z" id="Path" fill="#CCCCCC"></path>
                <path d="M324.99998,369.394834 C323.895433,369.394834 323.000035,368.499381 322.99998,367.394834 L322.99998,319.394834 C322.99998,318.290265 323.895411,317.394834 324.99998,317.394834 C326.104549,317.394834 326.99998,318.290265 326.99998,319.394834 L326.99998,367.394834 C326.999925,368.499381 326.104527,369.394834 324.99998,369.394834 Z" id="Path" fill="#CCCCCC"></path>
                <path d="M224.99998,390.394834 C223.895433,390.394834 223.000035,389.499381 222.99998,388.394834 L222.99998,340.394834 C222.99998,339.290265 223.895411,338.394834 224.99998,338.394834 C226.104549,338.394834 226.99998,339.290265 226.99998,340.394834 L226.99998,388.394834 C226.999925,389.499381 226.104527,390.394834 224.99998,390.394834 L224.99998,390.394834 Z" id="Path" fill="#CCCCCC"></path>
                <path d="M398.99998,395.394834 C397.895433,395.394834 397.000035,394.499381 396.99998,393.394834 L396.99998,345.394834 C396.99998,344.290265 397.895411,343.394834 398.99998,343.394834 C400.104549,343.394834 400.99998,344.290265 400.99998,345.394834 L400.99998,393.394834 C400.999925,394.499381 400.104527,395.394834 398.99998,395.394834 Z" id="Path" fill="#CCCCCC"></path>
                <path d="M394.99998,545.394834 C393.895433,545.394834 393.000035,544.499381 392.99998,543.394834 L392.99998,485.394834 C392.99998,484.290265 393.895411,483.394834 394.99998,483.394834 C396.104549,483.394834 396.99998,484.290265 396.99998,485.394834 L396.99998,543.394834 C396.999925,544.499381 396.104527,545.394834 394.99998,545.394834 Z" id="Path" fill="#CCCCCC"></path>
                <path d="M354.99998,596.394834 C353.895433,596.394834 353.000035,595.499381 352.99998,594.394834 L352.99998,508.394834 C352.99998,507.290265 353.895411,506.394834 354.99998,506.394834 C356.104549,506.394834 356.99998,507.290265 356.99998,508.394834 L356.99998,594.394834 C356.999925,595.499381 356.104527,596.394834 354.99998,596.394834 Z" id="Path" fill="#CCCCCC"></path>
                <path d="M362.99998,449.394834 C361.895433,449.394834 361.000035,448.499381 360.99998,447.394834 L360.99998,329.394834 C360.99998,328.290265 361.895411,327.394834 362.99998,327.394834 C364.104549,327.394834 364.99998,328.290265 364.99998,329.394834 L364.99998,447.394834 C364.999925,448.499381 364.104527,449.394834 362.99998,449.394834 Z" id="Path" fill="#CCCCCC"></path>
                <ellipse id="Oval" fill="#2F2E41" transform="translate(594.3693, 683.9812) rotate(-39.9384) translate(-594.3693, -683.9812)" cx="594.369343" cy="683.981218" rx="6.76007" ry="21.53369"></ellipse>
                <circle id="Oval" fill="#2F2E41" transform="translate(548.5622, 676.5032) rotate(-71.565) translate(-548.5622, -676.5032)" cx="548.562191" cy="676.503209" r="43.06733"></circle>
                <rect id="Rectangle" fill="#2F2E41" x="553.70728" y="710.302834" width="13.08374" height="23.44171"></rect>
                <rect id="Rectangle" fill="#2F2E41" x="527.5398" y="710.302834" width="13.08374" height="23.44171"></rect>
                <ellipse id="Oval" fill="#2F2E41" cx="555.88788" cy="734.017134" rx="10.90314" ry="4.08868"></ellipse>
                <ellipse id="Oval" fill="#2F2E41" cx="529.7204" cy="733.471994" rx="10.90314" ry="4.08868"></ellipse>
                <path d="M535.03938,622.366364 C538.88495,606.879364 555.85995,597.765604 572.95409,602.010194 C590.04823,606.254784 600.78837,622.250474 596.9428,637.737484 C593.09723,653.224494 580.33886,653.274484 563.24471,649.029814 C546.15056,644.785144 531.19379,637.853404 535.03938,622.366364 Z" id="Path" fill="#CCCCCC"></path>
                <ellipse id="Oval" fill="#2F2E41" transform="translate(500.054, 656.5197) rotate(-64.6257) translate(-500.054, -656.5197)" cx="500.05403" cy="656.519736" rx="6.76007" ry="21.53369"></ellipse>
                <circle id="Oval" fill="#FFFFFF" cx="542.12364" cy="667.415714" r="14.35864"></circle>
                <circle id="Oval" fill="#3F3D56" cx="536.22227" cy="662.268924" r="4.78622"></circle>
                <circle id="Oval" fill="#FFFFFF" cx="541.99998" cy="697.394824" r="6"></circle>
                <path d="M671.53148,738.394834 L435.53148,738.394834 C434.979195,738.394834 434.53148,737.947119 434.53148,737.394834 C434.53148,736.84255 434.979195,736.394834 435.53148,736.394834 L671.53148,736.394834 C672.083765,736.394834 672.53148,736.84255 672.53148,737.394834 C672.53148,737.947119 672.083765,738.394834 671.53148,738.394834 Z" id="Path" fill="#3F3D56"></path>
            </g>
        </g>
    </g>
</svg>